<svg xmlns="http://www.w3.org/2000/svg" viewBox="0 0 64 64">
  <rect x="12" y="20" width="32" height="36" rx="4" fill="#5d4037"/>
  <path d="M44 26h6a4 4 0 0 1 4 4v4a4 4 0 0 1-4 4h-6" fill="none" stroke="#5d4037" stroke-width="3" stroke-linecap="round"/>
  <ellipse cx="28" cy="20" rx="16" ry="4" fill="#795548"/>
  <path d="M20 14c0-4 2-8 2-8s2 4 2 8" fill="none" stroke="#ffb74d" stroke-width="2.5" stroke-linecap="round" opacity="0.8"/>
  <path d="M28 12c0-5 2-9 2-9s2 4 2 9" fill="none" stroke="#ffb74d" stroke-width="2.5" stroke-linecap="round" opacity="0.9"/>
  <path d="M36 14c0-4 2-8 2-8s2 4 2 8" fill="none" stroke="#ffb74d" stroke-width="2.5" stroke-linecap="round" opacity="0.7"/>
</svg>
